<svg width="213" height="213" viewBox="0 0 213 213" fill="none" xmlns="http://www.w3.org/2000/svg">
<path d="M106.5 0C165.318 0 213 47.6817 213 106.5C213 165.318 165.318 213 106.5 213C47.6817 213 0 165.318 0 106.5C0 47.6817 47.6817 0 106.5 0ZM112.08 52C99.8534 52 89.1662 54.3333 80.0195 59C70.9665 63.5733 63.8735 69.9666 58.7402 78.1797C56.9802 81.0479 55.5282 84.0819 54.3828 87.2803H46.3496C42.2905 87.2805 39.0001 90.5708 39 94.6299C39 98.689 42.2905 101.98 46.3496 101.98H51.3564C51.2393 103.582 51.1797 105.215 51.1797 106.88C51.1797 108.351 51.2283 109.797 51.3213 111.22H46.3496C42.2905 111.22 39 114.511 39 118.57C39.0002 122.629 42.2906 125.92 46.3496 125.92H54.2285C55.3968 129.267 56.8999 132.441 58.7402 135.44C63.7802 143.653 70.8732 150.047 80.0195 154.62C89.1662 159.193 99.8534 161.48 112.08 161.48C118.707 161.48 124.82 160.92 130.42 159.8C133.71 159.206 136.736 158.488 139.496 157.646C142.972 156.584 145.12 153.247 145.12 149.612C145.12 142.911 137.984 138.302 131.418 139.638C131.18 139.686 130.94 139.734 130.7 139.78C125.38 140.807 120.294 141.32 115.44 141.32C107.414 141.32 100.6 140.014 95 137.4C89.5024 134.743 85.2651 130.916 82.2861 125.92H115.65C119.709 125.92 123 122.629 123 118.57C123 114.511 119.71 111.22 115.65 111.22H77.959C77.8404 109.819 77.7803 108.372 77.7803 106.88C77.7803 105.187 77.8551 103.554 78.0039 101.98H115.65C119.71 101.98 123 98.689 123 94.6299C123 90.5708 119.709 87.2805 115.65 87.2803H82.541C85.505 82.4893 89.6574 78.802 95 76.2197C100.6 73.5131 107.414 72.1602 115.44 72.1602C120.387 72.1602 125.474 72.6736 130.7 73.7002C130.959 73.7501 131.216 73.801 131.472 73.8535C137.973 75.1872 145.12 70.6507 145.12 64.0137C145.12 60.3885 142.938 57.0818 139.468 56.0342C136.715 55.2034 133.699 54.4654 130.42 53.8203C124.727 52.607 118.613 52 112.08 52Z" fill="#F52855"/>
</svg>
